<svg xmlns="http://www.w3.org/2000/svg" viewBox="0 0 1600 900" role="img" aria-labelledby="t d"><title id="t">The Arwen Brothers</title><desc id="d">Three silhouetted brothers standing before the northern landscape of Roo.</desc><defs><linearGradient id="sky" x1="0" y1="0" x2="0" y2="1"><stop stop-color="#0b2429"/><stop offset="1" stop-color="#071011"/></linearGradient><linearGradient id="land" x1="0" y1="0" x2="1" y2="1"><stop stop-color="#3f5144"/><stop offset="1" stop-color="#182620"/></linearGradient></defs><rect width="1600" height="900" fill="url(#sky)"/><path d="M0 560 220 390 390 505 620 300 840 485 1080 330 1300 475 1600 310V900H0Z" fill="url(#land)" opacity=".8"/><path d="M0 690c300-85 560-40 800 25s500 50 800-30v215H0Z" fill="#071011"/><g fill="#101718"><circle cx="610" cy="430" r="58"/><path d="M520 760c18-190 14-275 90-285 84 6 84 112 95 285Z"/><circle cx="800" cy="395" r="64"/><path d="M690 760c22-220 20-305 110-315 95 9 92 126 108 315Z"/><circle cx="1010" cy="438" r="55"/><path d="M925 760c14-183 15-263 85-276 78 10 76 103 91 276Z"/></g><path d="M570 425c20-52 72-77 113-33M756 389c23-58 81-82 127-31M974 433c18-47 62-69 101-36" fill="none" stroke="#c9b47b" stroke-width="5" opacity=".45"/><text x="800" y="835" text-anchor="middle" fill="#d9c48f" font-family="Georgia,serif" font-size="34" letter-spacing="9">THE ARWEN BROTHERS</text></svg>